<svg xmlns="http://www.w3.org/2000/svg" xmlns:xlink="http://www.w3.org/1999/xlink" version="1.1" x="0px" y="0px" viewBox="0 0 3000 2000" style="enable-background:new 0 0 3000 2000;" xml:space="preserve">
<g id="BACKGROUND">
	<rect style="fill:#FFFFFF00;" width="3000" height="2000"/>
</g>
<g id="OBJECTS">
	<g>
		<g>
			<path style="fill:#F6F5F5;" d="M2752.292,1690.789l-4.399-1.868c65.13-153.406,90.522-301.228,75.468-439.361     c-17.281-158.575-91.139-300.243-202.636-388.671c-121.406-96.285-291.301-123.328-422.733-67.304     c-101.753,43.365-177.566,129.312-250.886,212.426c-69.818,79.141-142.008,160.978-236.976,207.159l-2.092-4.296     c94.109-45.766,165.977-127.239,235.482-206.027c73.67-83.514,149.853-169.871,252.595-213.661     c135.102-57.577,302.928-30.903,427.58,67.957c112.492,89.215,186.999,232.057,204.42,391.902     C2843.258,1387.996,2817.749,1536.621,2752.292,1690.789z"/>
			<path style="fill:#F6F5F5;" d="M1191.446,422.225c-55.092,53.058-75.333,130.672-17.026,218.169     c44.347,66.548,130.431,100.387,209.427,87.941c78.996-12.445,148.433-67.9,183.999-139.528     c26.307-52.981,28.756-114.066-8.875-162.653c-27.061-34.94-68.019-57.165-110.693-68.659     C1360.143,333.755,1253.608,362.358,1191.446,422.225z"/>
			<path style="fill:#F6F5F5;" d="M2795.938,1813.027c53.043-161.783,77.221-336.613,41.636-503.109     c-35.584-166.497-136.516-323.503-287.433-402.316c-211.152-110.271-468.024-52.059-695.076,19.999     s-468.606,156.426-697.644,90.954C982.29,968.493,830.33,833.61,648.196,831.485c-113.793-1.328-223.11,51.605-309.392,125.807     c-156.362,134.469-245.898,343.161-235.599,549.134c6.58,131.6,53.876,260.199,131.212,366.767H2774.8     C2782.245,1853.293,2789.31,1833.244,2795.938,1813.027z"/>
		</g>
		<g>
			<g>
				<path style="fill:#DADADA;" d="M2214.816,514.038c-65.915,0-119.539-53.624-119.539-119.539      c0-65.914,53.624-119.539,119.539-119.539c65.914,0,119.539,53.624,119.539,119.539      C2334.355,460.414,2280.73,514.038,2214.816,514.038z M2214.816,282.133c-61.959,0-112.366,50.407-112.366,112.366      s50.407,112.366,112.366,112.366c61.959,0,112.366-50.407,112.366-112.366S2276.775,282.133,2214.816,282.133z"/>
				<polygon style="fill:#DADADA;" points="2213.378,443.506 2161.435,395.774 2172.567,383.662 2209.082,417.217 2249.45,343.913       2263.86,351.846     "/>
			</g>
			<g>
				<path style="fill:#DADADA;" d="M2594.678,692.697h-128.733c-12.64,0-22.923-10.282-22.923-22.922v-30.851      c0-12.64,10.282-22.925,22.923-22.925h128.733c12.64,0,22.922,10.285,22.922,22.925v30.851      C2617.601,682.415,2607.318,692.697,2594.678,692.697z M2465.945,620.78c-10.002,0-18.141,8.139-18.141,18.143v30.851      c0,10.002,8.139,18.141,18.141,18.141h128.733c10.002,0,18.141-8.139,18.141-18.141v-30.851      c0-10.004-8.139-18.143-18.141-18.143H2465.945z"/>
				<g>
					
						<ellipse transform="matrix(0.9239 -0.3827 0.3827 0.9239 -61.0087 1001.9857)" style="fill:#DADADA;" cx="2488.162" cy="654.349" rx="8.52" ry="8.52"/>
					
						<ellipse transform="matrix(0.9239 -0.3827 0.3827 0.9239 -57.8002 1018.116)" style="fill:#DADADA;" cx="2530.312" cy="654.349" rx="8.52" ry="8.52"/>
					
						<ellipse transform="matrix(0.9239 -0.3827 0.3827 0.9239 -54.5917 1034.2463)" style="fill:#DADADA;" cx="2572.463" cy="654.349" rx="8.52" ry="8.52"/>
				</g>
			</g>
			<g>
				<path style="fill:#DADADA;" d="M573.534,720.039H444.801c-12.64,0-22.925-10.285-22.925-22.925v-30.851      c0-12.64,10.285-22.925,22.925-22.925h128.733c12.64,0,22.922,10.285,22.922,22.925v30.851      C596.457,709.755,586.174,720.039,573.534,720.039z M444.801,648.12c-10.004,0-18.143,8.139-18.143,18.143v30.851      c0,10.004,8.139,18.143,18.143,18.143h128.733c10.002,0,18.141-8.139,18.141-18.143v-30.851      c0-10.004-8.139-18.143-18.141-18.143H444.801z"/>
				<g>
					
						<ellipse transform="matrix(0.1602 -0.9871 0.9871 0.1602 -280.6777 1033.4805)" style="fill:#DADADA;" cx="467.017" cy="681.689" rx="8.52" ry="8.52"/>
					
						<ellipse transform="matrix(0.1602 -0.9871 0.9871 0.1602 -245.2789 1075.0868)" style="fill:#DADADA;" cx="509.167" cy="681.689" rx="8.52" ry="8.52"/>
					
						<ellipse transform="matrix(0.1602 -0.9871 0.9871 0.1602 -209.8801 1116.6931)" style="fill:#DADADA;" cx="551.318" cy="681.689" rx="8.52" ry="8.52"/>
				</g>
			</g>
			<g>
				<path style="fill:#DADADA;" d="M675.632,1517.374H467.635v-78.896h207.997V1517.374z M472.417,1512.592h198.434v-69.333H472.417      V1512.592z"/>
				<path style="fill:#DADADA;" d="M537.565,1443.26H329.568v-78.895h207.997V1443.26z M334.349,1438.478h198.434v-69.332H334.349      V1438.478z"/>
			</g>
			<g>
				<path style="fill:#DADADA;" d="M2793.761,1079.886h-207.997v-78.896h207.997V1079.886z M2590.546,1075.104h198.434v-69.332      h-198.434V1075.104z"/>
				<path style="fill:#DADADA;" d="M2655.694,1005.772h-207.997v-78.896h207.997V1005.772z M2452.479,1000.99h198.434v-69.332      h-198.434V1000.99z"/>
			</g>
			<path style="fill:#DADADA;" d="M2547.512,1632.126h-207.997v-78.896h207.997V1632.126z M2344.296,1627.345h198.434v-69.332     h-198.434V1627.345z"/>
			<path style="fill:#DADADA;" d="M2736.005,1378.303c-9.227,0-16.735-7.509-16.735-16.735c0-9.227,7.508-16.735,16.735-16.735     c9.227,0,16.735,7.509,16.735,16.735C2752.74,1370.794,2745.231,1378.303,2736.005,1378.303z M2736.005,1349.613     c-6.593,0-11.954,5.36-11.954,11.954c0,6.593,5.361,11.954,11.954,11.954s11.954-5.361,11.954-11.954     C2747.958,1354.974,2742.598,1349.613,2736.005,1349.613z"/>
			<path style="fill:#DADADA;" d="M1789.258,469.809c-9.227,0-16.735-7.508-16.735-16.735s7.509-16.735,16.735-16.735     c9.227,0,16.735,7.509,16.735,16.735S1798.485,469.809,1789.258,469.809z M1789.258,441.12c-6.593,0-11.954,5.363-11.954,11.954     c0,6.591,5.36,11.954,11.954,11.954c6.593,0,11.954-5.363,11.954-11.954C1801.212,446.483,1795.852,441.12,1789.258,441.12z"/>
			<path style="fill:#DADADA;" d="M292.635,1167.915c-9.227,0-16.735-7.508-16.735-16.735s7.509-16.735,16.735-16.735     s16.735,7.508,16.735,16.735S301.862,1167.915,292.635,1167.915z M292.635,1139.225c-6.591,0-11.954,5.361-11.954,11.954     s5.363,11.954,11.954,11.954s11.954-5.361,11.954-11.954S299.226,1139.225,292.635,1139.225z"/>
		</g>
		<g>
			<g>
				<rect x="952.727" y="1247.819" style="fill:#E2EAFF;" width="814.034" height="625.373"/>
				<rect x="1435.213" y="1247.819" style="opacity:0.2;fill:#1F3C88;" width="331.548" height="625.373"/>
				<polygon style="opacity:0.2;fill:#1F3C88;" points="1246.553,1490.483 1231.611,1475.337 1207.105,1490.483 1179.014,1462.785       1149.727,1490.483 1149.727,1247.819 1246.553,1247.819     "/>
			</g>
			<g>
				<rect x="1334.118" y="622.424" style="fill:#86A7FF;" width="814.033" height="625.373"/>
				<rect x="1334.118" y="622.424" style="fill:#E2EAFF;" width="199.509" height="160.507"/>
				<g>
					<rect x="1365.536" y="748.334" style="fill:#3A6BEA;" width="136.673" height="4.782"/>
					<rect x="1365.536" y="708.09" style="fill:#3A6BEA;" width="136.673" height="4.781"/>
				</g>
				<rect x="1951.446" y="622.424" style="opacity:0.2;fill:#1F3C88;" width="196.705" height="625.373"/>
				<polygon style="fill:#E2EAFF;" points="1796.431,865.088 1781.489,849.942 1756.983,865.088 1728.891,837.39 1699.604,865.088       1699.604,622.424 1796.431,622.424     "/>
				<g>
					<rect x="1588.832" y="1094.996" style="fill:#E2EAFF;" width="81.884" height="81.884"/>
					<rect x="1708.968" y="1094.996" style="fill:#E2EAFF;" width="81.884" height="81.884"/>
					<rect x="1829.105" y="1094.996" style="fill:#E2EAFF;" width="81.884" height="81.884"/>
				</g>
			</g>
			<g>
				<rect x="1611.754" y="1247.819" style="fill:#E2EAFF;" width="814.033" height="625.373"/>
				<rect x="2229.083" y="1247.819" style="opacity:0.2;fill:#1F3C88;" width="196.705" height="625.373"/>
				<polygon style="opacity:0.2;fill:#1F3C88;" points="1987.693,1490.483 1972.75,1475.337 1948.245,1490.483 1920.153,1462.785       1890.866,1490.483 1890.866,1247.819 1987.693,1247.819     "/>
			</g>
		</g>
		
		
	</g>
</g>
</svg>