<svg width="116" height="115" viewBox="0 0 116 115" fill="none" xmlns="http://www.w3.org/2000/svg">
<rect x="6.88867" y="19.1667" width="35.1389" height="76.6667" rx="3" fill="white"/>
<rect x="6.88867" y="19.1667" width="35.1389" height="76.6667" rx="3" fill="url(#paint0_linear)"/>
<g filter="url(#filter0_d)">
<path fill-rule="evenodd" clip-rule="evenodd" d="M67.9831 87.8472C51.4433 87.8472 38.0352 74.4391 38.0352 57.8993C38.0352 41.3595 51.4433 27.9514 67.9831 27.9514C84.5229 27.9514 97.931 41.3595 97.931 57.8993C97.931 64.7073 95.6593 70.9848 91.8325 76.015L109.279 92.9697L103.713 98.6969L86.1966 81.674C81.1501 85.5459 74.8353 87.8472 67.9831 87.8472ZM89.9449 57.8993C89.9449 70.0285 80.1122 79.8611 67.9831 79.8611C55.8539 79.8611 46.0213 70.0285 46.0213 57.8993C46.0213 45.7701 55.8539 35.9375 67.9831 35.9375C80.1122 35.9375 89.9449 45.7701 89.9449 57.8993Z" fill="#00BFD6"/>
</g>
<g filter="url(#filter1_d)">
<rect x="16.4727" y="12.7778" width="57.5" height="89.4444" rx="3" fill="url(#paint1_linear)"/>
<mask id="mask0" style="mask-type:alpha" maskUnits="userSpaceOnUse" x="16" y="12" width="58" height="91">
<rect x="16.4727" y="12.7778" width="57.5" height="89.4444" rx="3" fill="white"/>
</mask>
<g mask="url(#mask0)">
<path fill-rule="evenodd" clip-rule="evenodd" d="M67.9831 87.8472C51.4433 87.8472 38.0352 74.4391 38.0352 57.8993C38.0352 41.3595 51.4433 27.9514 67.9831 27.9514C84.5229 27.9514 97.931 41.3595 97.931 57.8993C97.931 64.7073 95.6593 70.9848 91.8325 76.015L109.279 92.9697L103.713 98.6969L86.1966 81.674C81.1501 85.5459 74.8353 87.8472 67.9831 87.8472ZM89.9449 57.8993C89.9449 70.0285 80.1122 79.8611 67.9831 79.8611C55.8539 79.8611 46.0213 70.0285 46.0213 57.8993C46.0213 45.7701 55.8539 35.9375 67.9831 35.9375C80.1122 35.9375 89.9449 45.7701 89.9449 57.8993Z" fill="white"/>
</g>
</g>
<defs>
<filter id="filter0_d" x="33.0352" y="23.9514" width="81.244" height="80.7455" filterUnits="userSpaceOnUse" color-interpolation-filters="sRGB">
<feFlood flood-opacity="0" result="BackgroundImageFix"/>
<feColorMatrix in="SourceAlpha" type="matrix" values="0 0 0 0 0 0 0 0 0 0 0 0 0 0 0 0 0 0 127 0" result="hardAlpha"/>
<feOffset dy="1"/>
<feGaussianBlur stdDeviation="2.5"/>
<feColorMatrix type="matrix" values="0 0 0 0 0 0 0 0 0 0 0 0 0 0 0 0 0 0 0.102956 0"/>
<feBlend mode="normal" in2="BackgroundImageFix" result="effect1_dropShadow"/>
<feBlend mode="normal" in="SourceGraphic" in2="effect1_dropShadow" result="shape"/>
</filter>
<filter id="filter1_d" x="11.4727" y="9.77777" width="67.5" height="99.4444" filterUnits="userSpaceOnUse" color-interpolation-filters="sRGB">
<feFlood flood-opacity="0" result="BackgroundImageFix"/>
<feColorMatrix in="SourceAlpha" type="matrix" values="0 0 0 0 0 0 0 0 0 0 0 0 0 0 0 0 0 0 127 0" result="hardAlpha"/>
<feOffset dy="2"/>
<feGaussianBlur stdDeviation="2.5"/>
<feColorMatrix type="matrix" values="0 0 0 0 0 0 0 0 0 0 0 0 0 0 0 0 0 0 0.170974 0"/>
<feBlend mode="normal" in2="BackgroundImageFix" result="effect1_dropShadow"/>
<feBlend mode="normal" in="SourceGraphic" in2="effect1_dropShadow" result="shape"/>
</filter>
<linearGradient id="paint0_linear" x1="6.88867" y1="19.1667" x2="6.88867" y2="95.8333" gradientUnits="userSpaceOnUse">
<stop stop-color="#0FABC6"/>
<stop offset="1" stop-color="#008EB2"/>
</linearGradient>
<linearGradient id="paint1_linear" x1="16.4727" y1="12.7778" x2="16.4727" y2="102.222" gradientUnits="userSpaceOnUse">
<stop stop-color="#87D3E1"/>
<stop offset="1" stop-color="#00BFD6"/>
</linearGradient>
</defs>
</svg>
